<svg width="71" height="15" viewBox="0 0 71 15" fill="none" xmlns="http://www.w3.org/2000/svg">
<path d="M0.42 14L4.42 -9.53674e-07H8.22L12.2 14H9.98L9.06 10.7H3.58L2.66 14H0.42ZM4.12 8.7H8.52L6.48 1.34H6.16L4.12 8.7ZM14.1567 14V4.14H16.1767V5.62H16.4967C16.6834 5.22 17.0167 4.84667 17.4967 4.5C17.9767 4.15333 18.6901 3.98 19.6367 3.98C20.3834 3.98 21.0434 4.14667 21.6167 4.48C22.2034 4.81333 22.6634 5.28667 22.9967 5.9C23.3301 6.5 23.4967 7.22667 23.4967 8.08V14H21.4367V8.24C21.4367 7.38667 21.2234 6.76 20.7967 6.36C20.3701 5.94667 19.7834 5.74 19.0367 5.74C18.1834 5.74 17.4967 6.02 16.9767 6.58C16.4701 7.14 16.2167 7.95333 16.2167 9.02V14H14.1567ZM31.0814 14.28C30.0947 14.28 29.2147 14.08 28.4414 13.68C27.6814 13.2667 27.0814 12.68 26.6414 11.92C26.2014 11.16 25.9814 10.26 25.9814 9.22V8.92C25.9814 7.88 26.2014 6.98667 26.6414 6.24C27.0814 5.48 27.6814 4.89333 28.4414 4.48C29.2147 4.06667 30.0947 3.86 31.0814 3.86C32.0681 3.86 32.9481 4.06667 33.7214 4.48C34.4947 4.89333 35.1014 5.48 35.5414 6.24C35.9814 6.98667 36.2014 7.88 36.2014 8.92V9.22C36.2014 10.26 35.9814 11.16 35.5414 11.92C35.1014 12.68 34.4947 13.2667 33.7214 13.68C32.9481 14.08 32.0681 14.28 31.0814 14.28ZM31.0814 12.44C31.9881 12.44 32.7214 12.1533 33.2814 11.58C33.8547 10.9933 34.1414 10.1867 34.1414 9.16V8.98C34.1414 7.95333 33.8614 7.15333 33.3014 6.58C32.7414 5.99333 32.0014 5.7 31.0814 5.7C30.1881 5.7 29.4547 5.99333 28.8814 6.58C28.3214 7.15333 28.0414 7.95333 28.0414 8.98V9.16C28.0414 10.1867 28.3214 10.9933 28.8814 11.58C29.4547 12.1533 30.1881 12.44 31.0814 12.44ZM42.8461 14.28C42.0328 14.28 41.2794 14.08 40.5861 13.68C39.8928 13.28 39.3328 12.7067 38.9061 11.96C38.4928 11.2 38.2861 10.2867 38.2861 9.22V8.92C38.2861 7.86667 38.4928 6.96 38.9061 6.2C39.3194 5.44 39.8728 4.86 40.5661 4.46C41.2594 4.06 42.0194 3.86 42.8461 3.86C43.4861 3.86 44.0194 3.94 44.4461 4.1C44.8861 4.26 45.2461 4.46667 45.5261 4.72C45.8061 4.96 46.0194 5.21333 46.1661 5.48H46.4861V-9.53674e-07H48.5461V14H46.5261V12.6H46.2061C45.9528 13.0267 45.5661 13.4133 45.0461 13.76C44.5394 14.1067 43.8061 14.28 42.8461 14.28ZM43.4261 12.48C44.3194 12.48 45.0528 12.1933 45.6261 11.62C46.2128 11.0467 46.5061 10.2267 46.5061 9.16V8.98C46.5061 7.92667 46.2194 7.11333 45.6461 6.54C45.0728 5.96667 44.3328 5.68 43.4261 5.68C42.5461 5.68 41.8128 5.96667 41.2261 6.54C40.6528 7.11333 40.3661 7.92667 40.3661 8.98V9.16C40.3661 10.2267 40.6528 11.0467 41.2261 11.62C41.8128 12.1933 42.5461 12.48 43.4261 12.48ZM56.1986 14.28C55.2119 14.28 54.3319 14.08 53.5586 13.68C52.7986 13.2667 52.1986 12.68 51.7586 11.92C51.3186 11.16 51.0986 10.26 51.0986 9.22V8.92C51.0986 7.88 51.3186 6.98667 51.7586 6.24C52.1986 5.48 52.7986 4.89333 53.5586 4.48C54.3319 4.06667 55.2119 3.86 56.1986 3.86C57.1853 3.86 58.0653 4.06667 58.8386 4.48C59.6119 4.89333 60.2186 5.48 60.6586 6.24C61.0986 6.98667 61.3186 7.88 61.3186 8.92V9.22C61.3186 10.26 61.0986 11.16 60.6586 11.92C60.2186 12.68 59.6119 13.2667 58.8386 13.68C58.0653 14.08 57.1853 14.28 56.1986 14.28ZM56.1986 12.44C57.1053 12.44 57.8386 12.1533 58.3986 11.58C58.9719 10.9933 59.2586 10.1867 59.2586 9.16V8.98C59.2586 7.95333 58.9786 7.15333 58.4186 6.58C57.8586 5.99333 57.1186 5.7 56.1986 5.7C55.3053 5.7 54.5719 5.99333 53.9986 6.58C53.4386 7.15333 53.1586 7.95333 53.1586 8.98V9.16C53.1586 10.1867 53.4386 10.9933 53.9986 11.58C54.5719 12.1533 55.3053 12.44 56.1986 12.44ZM67.2122 14C66.6122 14 66.1322 13.82 65.7722 13.46C65.4255 13.1 65.2522 12.62 65.2522 12.02V5.88H62.5322V4.14H65.2522V0.88H67.3122V4.14H70.2522V5.88H67.3122V11.66C67.3122 12.06 67.4989 12.26 67.8722 12.26H69.9322V14H67.2122Z" fill="#0B1627"/>
</svg>
